<?xml version="1.0" encoding="utf-8"?>
<!-- Generator: Adobe Illustrator 23.0.1, SVG Export Plug-In . SVG Version: 6.00 Build 0)  -->
<svg version="1.1" id="Layer_1" xmlns="http://www.w3.org/2000/svg" xmlns:xlink="http://www.w3.org/1999/xlink" x="0px" y="0px"
	 viewBox="0 0 1000 1080" style="enable-background:new 0 0 1000 1080;" xml:space="preserve">
<g>
	<path d="M495.34,54.33c4.34-4.38,12.88-0.69,12.35,5.59c0.11,57.38,0.03,114.76,0.03,172.14c0.14,0.59,0.43,1.79,0.57,2.38
		c12.12,0.78,24.29,1.96,36.11,4.91c6.97-25.67,13.81-51.4,21.09-76.99c1.22-4.11,6.54-6.24,10.29-4.15
		c3.23,1.44,4.84,5.35,3.79,8.69c-6.03,22.05-12.3,44.05-18.03,66.18c-0.82,3.42-1.97,6.78-2.34,10.3
		c11.86,3.33,23.3,8.2,34.14,14.04c7.1-10.15,12.22-21.59,18.92-32.01c2.08-3.25,6.97-3.81,10.04-1.69
		c3.25,1.99,4.18,6.72,2.22,9.93c-5.9,10.46-12.02,20.79-17.82,31.31c10.3,6.86,20.43,14.13,29.33,22.8
		c20.88-20.68,41.55-41.55,62.36-62.3c3.11-3.57,9.64-2.77,11.74,1.5c2.01,3.11,0.84,7.29-1.88,9.58
		c-20.55,20.49-41.02,41.05-61.6,61.51c8.22,9.44,16.26,19.12,22.66,29.92c14.84-8.32,29.6-16.77,44.33-25.28
		c3.8-2.35,9.48-0.04,10.51,4.32c1.22,3.27-0.55,7.06-3.57,8.64c-14.43,8.41-28.93,16.73-43.57,24.79
		c5,11.43,10.75,22.7,13.81,34.88c8.86-2.16,17.63-4.73,26.48-7.01c10.93-2.78,21.56-6.76,32.72-8.59
		c9.33-2.56,18.62-5.33,28.01-7.69c3.78-0.88,7.69-2.73,11.62-1.5c4.19,1.26,5.76,6.98,3.42,10.5c-1.07,1.94-3.14,2.99-5.19,3.55
		c-10.59,2.74-21.21,5.42-31.68,8.62c-4.32,1.29-8.85,1.64-13.18,2.88c-12.57,3.82-25.29,7.11-37.97,10.49
		c-3.52,0.99-7.17,1.56-10.5,3.12c3.16,11.51,4.15,23.51,4.97,35.39c0.66,4.02-2.21,8.51-6.5,8.58c-3.81,0.66-7.84-2.68-7.65-6.58
		c-1.58-36.74-14.13-72.94-36.06-102.5c-20.49-27.9-48.97-49.89-81.19-62.54c-41.51-16.54-89.06-17.12-131.01-1.78
		c-24.69,8.97-47.41,23.32-66.17,41.7c-32.74,31.95-53.22,76.35-55.38,122.11c0,2.98-0.19,6.71-3.18,8.32
		c-3.8,2.96-10.62,0.77-11-4.3c-0.51-12.97,1.97-25.82,4.4-38.5c-11.46-3.15-23.06-5.82-34.47-9.16c-2.99-0.82-3.64-4.19-2.84-6.81
		c0.38-3.37,2.29-8.11,6.53-7.08c11.46,3.02,22.95,5.96,34.37,9.1c3.99-11.94,8.39-23.82,14.52-34.86
		c-17.91-10.71-36.15-20.87-54.1-31.51c-2.36-1.51-5.5-2.58-6.44-5.5c-1.64-3.54,0.24-8.11,3.86-9.53c2.69-1.46,5.78-0.24,8.19,1.23
		c16.49,9.63,33,19.24,49.54,28.78c2.42,1.53,5.84,1.75,8.12-0.15c2.53-2.24,4.1-5.31,6.15-7.96c4.43-6.38,9.87-12,14.56-18.15
		c-7.74-8.19-16.03-15.86-23.8-24.03c-3.24-3.32-1.78-9.75,2.58-11.34c2.72-1.44,6.27-0.65,8.41,1.47
		c7.96,7.81,15.68,15.87,23.72,23.6c8.81-8.53,18.67-15.99,29.09-22.44c-2.8-5.77-5.76-11.48-9.06-16.98
		c-17.56-30.14-35.54-60.04-52.56-90.49c-1.78-2.91-1.04-6.92,1.52-9.13c3.28-3.29,9.58-2.14,11.56,2.06
		c15.5,27.69,31.79,54.93,47.77,82.35c4.97,7.98,9.27,16.34,13.79,24.57c10.96-6.01,22.67-10.51,34.46-14.55
		c-4.37-19.5-10.24-38.72-15.3-58.08c-1.03-4.29-3.71-9.5-0.4-13.45c3.41-4.5,11.35-2.88,12.78,2.56
		c5.96,21.67,11.87,43.37,17.56,65.12c12.14-2.49,24.46-4.36,36.88-4.66c0.26-56.19,0.05-112.38,0.11-168.57
		C493.11,62.08,491.83,57.19,495.34,54.33z"/>
	<path d="M401.33,65.49c3.8-1.45,8.4,0.82,9.46,4.78c4.72,15.37,7.09,31.39,12.23,46.65c3.14,10.58,6.32,21.18,8.73,31.96
		c1.1,4.24-2.53,8.68-6.82,8.78c-3.5,0.29-6.94-2.24-7.64-5.68c-3.19-13.16-7.01-26.16-11.05-39.09
		c-3.43-12.7-5.97-25.63-9.63-38.27C395.37,70.94,397.64,66.62,401.33,65.49z"/>
	<path d="M594.44,65.6c5.08-2.29,11.29,2.99,9.77,8.35c-1.43,6.26-2.8,12.55-4.62,18.71c-1.92,5.05-9.68,5.81-12.68,1.4
		c-2.37-2.7-1.39-6.42-0.51-9.5c1.39-4.78,2.14-9.72,3.62-14.47C590.63,67.96,592.39,66.35,594.44,65.6z"/>
	<path d="M310.21,103.16c3.37-1.63,7.83-0.29,9.63,3.02c3.77,6.29,7.31,12.71,10.9,19.11c1.53,2.48,1.66,5.87-0.11,8.27
		c-2.23,3.5-7.67,4.32-10.81,1.62c-1.91-1.91-3.03-4.42-4.37-6.73c-2.77-5.14-5.84-10.11-8.65-15.22
		C304.84,109.69,306.45,104.73,310.21,103.16z"/>
	<path d="M685.13,103.16c4.15-1.65,9.34,1.26,9.93,5.71c0.6,3.14-1.46,5.84-2.76,8.5c-8.31,15.94-18.61,30.73-27.5,46.34
		c-1.32,2.53-3.83,4.73-6.85,4.51c-3.93,0.28-7.59-3.33-7.53-7.22c-0.18-2.08,1.02-3.87,1.96-5.62
		c9.18-15.75,19.5-30.84,27.86-47.06C681.37,106.23,682.61,103.78,685.13,103.16z"/>
	<path d="M583.41,108.57c3.77-1.19,8.25,1.12,9.29,4.96c0.79,2.53-0.22,5.11-0.82,7.56c-1.88,6.51-3.27,13.16-5.41,19.58
		c-1.83,4.69-8.86,5.54-12.05,1.83c-1.9-1.94-2.44-4.9-1.63-7.45c1.83-7.02,3.67-14.04,5.61-21.03
		C579,111.52,580.91,109.31,583.41,108.57z"/>
	<path d="M233.28,162.43c2.85-1.21,6.16-0.06,8.19,2.13c25.99,25.97,51.94,51.99,77.96,77.94c2.71,2.27,4.23,6.14,2.6,9.5
		c-1.75,4.74-8.73,5.8-12.02,2.08c-26.55-26.48-53.06-53.01-79.57-79.54C226.58,170.97,228.3,163.96,233.28,162.43z"/>
	<path d="M762.31,162.43c4.45-1.73,9.93,1.75,9.96,6.58c0.44,4.17-3.38,6.68-5.84,9.39c-2.87,2.77-5.76,6.94-10.35,6.02
		c-5.76-0.46-8.55-8.57-4.2-12.43C755.34,168.82,758.18,164.71,762.31,162.43z"/>
	<path d="M641.36,178.53c5.4-2.17,11.64,3.75,9.45,9.23c-3.4,7.08-7.34,13.91-11.3,20.7c-1.45,2.65-4.46,4.33-7.49,3.94
		c-4.73-0.44-8.07-5.95-5.9-10.3c3.04-5.6,6.33-11.07,9.24-16.75C636.81,182.72,638.24,179.5,641.36,178.53z"/>
	<path d="M734.19,190.18c3.75-2.07,9.05,0.17,10.31,4.24c1.05,3.03-0.16,6.42-2.55,8.46c-4.82,4.59-9.3,9.54-14.23,14.01
		c-4.43,3.68-12.06-0.13-11.68-5.91c-0.32-4.06,3.45-6.45,5.86-9.08C726.13,198.13,729.59,193.49,734.19,190.18z"/>
	<path d="M173.22,240.11c2.3-0.87,4.98-0.72,7.08,0.6c7.17,4.16,14.4,8.2,21.51,12.44c4.35,2.41,4.35,9.3,0.37,12.05
		c-2.63,2.15-6.46,1.74-9.15-0.07c-6.94-4.2-14.18-7.9-21.04-12.22C167.21,250.02,168.22,242.2,173.22,240.11z"/>
	<path d="M821.26,240.12c3.35-1.56,7.84-0.27,9.54,3.12c2.04,3.63,0.45,8.61-3.36,10.33c-26.51,15.03-52.91,30.24-79.17,45.7
		c-3.22,1.99-7.21,4.64-11,2.4c-5.07-2.21-5.29-10.2-0.48-12.82C764.84,272.42,792.89,255.99,821.26,240.12z"/>
	<path d="M218.16,266.29c2.51-1.43,5.56-0.73,7.9,0.7c7.39,4.26,14.79,8.5,22.19,12.74c2.33,1.29,4.63,3.43,4.67,6.28
		c0.49,3.7-2.28,7.43-5.95,8.04c-2.79,0.66-5.31-1.08-7.65-2.34c-7.17-4.25-14.49-8.25-21.68-12.47
		C212.7,276.68,213.07,268.49,218.16,266.29z"/>
	<path d="M134.37,330.33c2.12-1.89,4.94-0.42,7.27,0.14c4.89,1.64,9.94,2.72,14.87,4.21c2.18,0.68,3.31,3.08,2.94,5.26
		c-0.4,2.91-0.58,6.47-3.28,8.28c-1.74,0.97-3.79,0.32-5.61-0.01c-5.48-1.37-10.93-2.9-16.31-4.63c-2.37-0.63-3.58-3.32-3.06-5.61
		C131.67,335.28,132.11,332.15,134.37,330.33z"/>
	<path d="M859.19,330.25c4.08-1.59,9.31,1.16,9.63,5.68c0.85,3.79-1.9,7.72-5.67,8.4c-16.08,4.3-32.11,8.81-48.24,12.94
		c-3.98,1.18-8.74-2.07-8.75-6.32c-0.46-3.31,1.49-7.06,4.94-7.73C827.14,338.94,843.14,334.47,859.19,330.25z"/>
	<path d="M175.38,340.48c4.69-0.86,9.17,1.81,13.7,2.72c19.52,5.03,39.11,9.79,58.46,15.49c2.93,1.11,7.02,1.03,8.61,4.19
		c1,2.69-0.2,5.57-1.08,8.13c-0.67,2.52-3.52,4.01-5.99,3.28c-15.02-4.15-29.94-8.68-45.12-12.23c-9.3-2.19-18.54-4.66-27.74-7.23
		c-2.28-0.64-5.24-1.97-4.96-4.81C171.58,346.62,172.12,342.33,175.38,340.48z"/>
</g>
<g>
	<path d="M137.47,463.65c49.5-0.38,99.04-0.05,148.55-0.16c190.01-0.01,380.01,0.01,570.01-0.01c3.69,0.12,8.28-0.85,10.85,2.58
		c4.07,4.31,0.17,12.59-5.83,11.7c-240.37,0-480.74,0.01-721.11,0c-2.37,0.19-4.78-0.51-6.18-2.53
		C130.35,471.47,132.62,464.79,137.47,463.65z"/>
	<path d="M179.29,522.41c22.21-0.52,44.48-0.06,66.71-0.23c4.35-0.6,8.49,3.53,7.78,7.9c-0.07,3.88-3.97,6.97-7.76,6.53
		c-21.35,0.01-42.71-0.02-64.06,0.02c-2.05,0.07-4.18-0.47-5.62-2C172.47,531.18,173.98,523.5,179.29,522.41z"/>
	<path d="M270.41,522.57c2.46-0.62,5.03-0.35,7.55-0.39c65.02,0.06,130.04-0.05,195.06,0.05c4.34-0.1,7.57,4.61,6.53,8.7
		c-0.77,3.35-4.02,6.06-7.55,5.67c-66.34,0-132.69,0.04-199.03-0.02c-4.28,0.15-8.08-4.46-6.94-8.63
		C266.35,525.5,268.14,523.44,270.41,522.57z"/>
	<path d="M498.27,522.41c11.87-0.54,23.81-0.06,35.7-0.22c95.03,0,190.05,0.01,285.08-0.01c5.31-0.67,9.29,5.94,6.68,10.44
		c-1.26,3.02-4.72,4.26-7.78,4c-105.65-0.03-211.3-0.01-316.94-0.01c-3.87,0.47-7.8-2.71-7.82-6.65
		C492.81,526.69,494.92,523.08,498.27,522.41z"/>
	<path d="M220.35,581.38c2.38-1.12,5.11-0.58,7.65-0.69c30.98,0.03,61.96,0,92.95,0.02c3.14-0.01,6.15,2.29,6.89,5.37
		c1.42,4.31-2.21,9.38-6.8,9.26c-31.02,0.08-62.04-0.02-93.07,0.04c-3.01-0.07-6.41,0.53-8.95-1.49
		C214.64,590.99,215.39,583.29,220.35,581.38z"/>
	<path d="M345.39,581.48c1.43-0.73,3.06-0.77,4.63-0.8c66,0.05,132,0.01,197.99,0.02c4.58-0.55,8.85,3.82,8,8.38
		c-0.47,3.81-4.19,6.71-8.01,6.28c-66.32,0.01-132.65,0.01-198.97,0c-3.65,0.16-7.33-2.58-7.56-6.35
		C340.99,585.99,342.55,582.74,345.39,581.48z"/>
	<path d="M573.31,581.37c1.47-0.68,3.14-0.62,4.74-0.68c29.97,0.05,59.94-0.04,89.91,0.05c4.25-0.2,7.94,4.07,7.24,8.24
		c-0.44,3.93-4.35,6.84-8.24,6.39c-30.33-0.03-60.66,0.05-90.99-0.04C568.59,595.5,566.57,584,573.31,581.37z"/>
	<path d="M690.38,581.53c1.37-0.82,3.01-0.82,4.58-0.85c27.35,0.06,54.7-0.01,82.05,0.03c3.87-0.15,7.64,3.25,7.51,7.22
		c0.2,4.05-3.54,7.67-7.56,7.44c-27.65,0-55.3-0.01-82.95,0c-4.05,0.28-7.83-3.36-7.6-7.42
		C686.31,585.25,687.99,582.72,690.38,581.53z"/>
	<path d="M264.37,639.48c55.22-0.28,110.47-0.03,165.7-0.13c2.64,0.07,5.39-0.29,7.96,0.52c4.21,1.38,6.02,7.07,3.58,10.73
		c-1.29,2.35-4.01,3.49-6.6,3.5c-56.33,0.02-112.67,0-169,0.01c-4.38,0.38-8.45-3.71-7.83-8.1
		C258.32,642.73,261.13,639.83,264.37,639.48z"/>
	<path d="M461.36,639.55c13.85-0.45,27.75-0.06,41.63-0.19c30.68,0.04,61.37-0.07,92.06,0.05c4.74-0.13,8.34,5.17,6.7,9.56
		c-0.84,3.38-4.41,5.3-7.72,5.15c-41.99-0.02-83.98-0.03-125.97,0.01c-3.61-0.08-8.05,0.64-10.6-2.55
		C453.81,647.73,456.08,640.45,461.36,639.55z"/>
	<path d="M620.4,639.65c12.84-0.68,25.76-0.1,38.64-0.29c25.32,0.02,50.64-0.03,75.96,0.03c4.84-0.38,8.76,5.02,7.18,9.54
		c-1.04,3.43-4.65,5.52-8.15,5.18c-37.02-0.02-74.05,0.03-111.07-0.02c-3.95,0.23-7.73-3.15-7.65-7.15
		C615.04,643.69,617.37,640.62,620.4,639.65z"/>
	<path d="M306.09,698.19c16.29-0.37,32.6-0.1,48.9-0.13c4.9-0.22,8.71,5.28,6.8,9.8c-0.89,3.33-4.42,5.15-7.69,4.95
		c-15.37-0.01-30.73,0.02-46.1-0.01c-2.57,0.13-5.17-0.96-6.53-3.2C298.27,705.63,301.1,698.83,306.09,698.19z"/>
	<path d="M379.17,698.3c3.89-0.7,7.86-0.23,11.79-0.31c34.7,0.09,69.4-0.01,104.09,0.02c2.11,0.07,4.48,0.23,6.02,1.89
		c3.15,2.8,3.19,8.32-0.06,11.07c-1.56,1.58-3.86,1.88-5.97,1.85c-37.67-0.02-75.35,0-113.02-0.01c-3.25,0.23-6.75-1.54-7.71-4.8
		C372.7,704.16,375.06,699.25,379.17,698.3z"/>
	<path d="M520.24,698.36c0.67-0.09,2.02-0.26,2.7-0.35c56.69,0.04,113.4-0.01,170.09,0.06c3.84-0.34,7.34,3.15,7.37,6.93
		c0.43,4.06-3.18,8.08-7.33,7.78c-56.71,0.06-113.43,0.04-170.15,0.01c-4.17,0.29-7.99-3.6-7.57-7.77
		C515.43,702.05,517.5,699.4,520.24,698.36z"/>
	<path d="M346.28,757.38c1.46-0.75,3.15-0.66,4.75-0.7c25,0.09,50.02-0.07,75.02,0.07c4.53-0.03,8,4.93,6.7,9.21
		c-0.79,3.42-4.23,5.85-7.73,5.57c-25.02-0.01-50.05-0.02-75.08,0.01c-3.3,0.15-6.51-2.08-7.43-5.26
		C341.29,762.9,343.17,758.98,346.28,757.38z"/>
	<path d="M449.26,757.33c2.78-1.05,5.84-0.56,8.75-0.64c41.33,0.02,82.67,0.02,124,0c3.9,0.05,8.78-0.8,11.47,2.78
		c3.86,4.33,0.31,12.13-5.5,12.01c-45.01,0.1-90.03,0-135.04,0.05c-4.23,0.4-8.24-3.35-8.03-7.59
		C444.85,761.1,446.72,758.47,449.26,757.33z"/>
	<path d="M612.3,757.37c1.77-0.86,3.79-0.67,5.71-0.71c11.31,0.16,22.64-0.11,33.96,0.13c5.09,0.23,8.1,6.61,5.58,10.9
		c-1.47,3.26-5.34,4.05-8.57,3.87c-11.63-0.19-23.27,0.19-34.88-0.19C607.22,770.52,605.92,759.93,612.3,757.37z"/>
	<path d="M390.39,815.49c31.88-0.4,63.79-0.06,95.68-0.17c3.65-0.41,7.36,1.79,8.3,5.43c1.7,4.6-2.56,9.86-7.38,9.45
		c-31.65-0.01-63.31-0.01-94.96,0c-3.75,0.34-7.31-2.58-7.75-6.3C383.52,820.06,386.47,815.87,390.39,815.49z"/>
	<path d="M512.43,815.49c31.87-0.4,63.77-0.06,95.65-0.17c4.37-0.52,8.67,3.24,8.28,7.73c0.12,3.87-3.47,7.33-7.32,7.12
		c-31.68,0.06-63.36,0.01-95.04,0.02c-3.23,0.18-6.45-2.08-7.24-5.23C505.37,820.96,508.22,816.1,512.43,815.49z"/>
	<path d="M431.29,874.34c2.5-0.65,5.14-0.3,7.7-0.36c25.67,0.01,51.33,0.03,77-0.01c3.16,0.05,6.76-0.52,9.38,1.7
		c3.87,2.93,3.5,9.59-0.65,12.09c-2.57,1.73-5.81,1.16-8.71,1.26c-27.36-0.05-54.71,0.01-82.06-0.02c-3.85,0.17-7.59-3.08-7.72-6.97
		C425.87,878.68,428.18,875.45,431.29,874.34z"/>
	<path d="M544.39,874.42c5.47-1,11.11-0.17,16.66-0.43c3.68,0.16,8.09-0.91,10.99,2.05c4.23,3.66,2.3,11.57-3.25,12.71
		c-5.58,0.63-11.22,0.05-16.82,0.28c-3.57-0.05-7.93,0.63-10.48-2.51C537.86,882.87,539.65,876.14,544.39,874.42z"/>
	<path d="M472.41,933.39c1.43-0.71,3.07-0.62,4.62-0.67c15.97,0.04,31.93-0.02,47.9,0.02c4.32-0.32,8.02,4.03,7.31,8.25
		c-0.14,4.14-4.31,7.1-8.28,6.71c-16.3-0.15-32.62,0.11-48.92-0.13C467.71,947.51,465.72,936.16,472.41,933.39z"/>
</g>
</svg>
